<?xml version="1.0" encoding="UTF-8" standalone="no"?>
<svg
   xmlns:dc="http://purl.org/dc/elements/1.1/"
   xmlns:cc="http://creativecommons.org/ns#"
   xmlns:rdf="http://www.w3.org/1999/02/22-rdf-syntax-ns#"
   xmlns:svg="http://www.w3.org/2000/svg"
   xmlns="http://www.w3.org/2000/svg"
   xmlns:sodipodi="http://sodipodi.sourceforge.net/DTD/sodipodi-0.dtd"
   xmlns:inkscape="http://www.inkscape.org/namespaces/inkscape"
   version="1.1"
   id="svg2"
   xml:space="preserve"
   width="493.33334"
   height="81.959999"
   viewBox="0 0 493.33334 81.959999"
   sodipodi:docname="blend-a-med-seeklogo.com.eps"><metadata
     id="metadata8"><rdf:RDF><cc:Work
         rdf:about=""><dc:format>image/svg+xml</dc:format><dc:type
           rdf:resource="http://purl.org/dc/dcmitype/StillImage" /></cc:Work></rdf:RDF></metadata><defs
     id="defs6" /><sodipodi:namedview
     pagecolor="#ffffff"
     bordercolor="#666666"
     borderopacity="1"
     objecttolerance="10"
     gridtolerance="10"
     guidetolerance="10"
     inkscape:pageopacity="0"
     inkscape:pageshadow="2"
     inkscape:window-width="640"
     inkscape:window-height="480"
     id="namedview4" /><g
     id="g10"
     inkscape:groupmode="layer"
     inkscape:label="ink_ext_XXXXXX"
     transform="matrix(1.3333333,0,0,-1.3333333,0,81.96)"><g
       id="g12"
       transform="scale(0.1)"><path
         d="M 3699.63,614.367 3522.76,0.28125 H 0.382813 L 17.5547,53.9922 3069.75,53.8672 3246.24,614.367 h 453.39"
         style="fill:#cf1843;fill-opacity:1;fill-rule:nonzero;stroke:none"
         id="path14" /><path
         d="M 0.769531,0.5625 H 3522.55 L 3699.26,614.086 H 3246.44 L 3069.95,53.5859 h -0.2 L 17.7617,53.7109 Z M 3522.97,0 H 0 L 0.117188,0.367188 17.3516,54.2734 h 0.2031 L 3069.55,54.1484 3246.03,614.648 H 3700 l -0.1,-0.355 L 3522.97,0"
         style="fill:#cf1843;fill-opacity:1;fill-rule:nonzero;stroke:none"
         id="path16" /><path
         d="m 1143.81,300.766 c 9.69,29.004 16.67,59.234 2.24,83.906 -11.67,19.57 -35.74,30.797 -66.03,30.797 -42.58,0 -73.31,-17.051 -94.997,-33.457 l 8.25,25.312 H 903.777 L 800.422,97.3242 h 89.57 l 74.371,223.3708 c 17.379,14.625 40.807,32.957 68.277,32.957 9.36,0 16.39,-2.812 20.89,-7.636 5.88,-6.309 6.19,-15.477 5.85,-20.457 -0.38,-8.579 -3.47,-16.692 -6.45,-25.868 L 985.5,97.3242 h 90.07 l 68.24,204.9138 v -1.472"
         style="fill:#262121;fill-opacity:1;fill-rule:nonzero;stroke:none"
         id="path18" /><path
         d="M 289.395,250.387 C 254.66,145.242 200.105,137.066 184.211,137.066 c -25.715,0 -34.246,14.7 -40.481,27.707 l 49.981,150.989 c 4.004,4.754 31.25,35.277 67.652,35.277 22.164,0 34.52,-11.32 37.782,-34.703 2.593,-16.914 -0.594,-38.481 -9.75,-65.949 z m 87.847,130.187 c -15.344,21.231 -40.465,32.449 -72.633,32.449 -40.23,0 -69.414,-14.316 -89.074,-29.285 l 43.641,133.586 H 169.043 L 28.3984,87.3242 h 90.1526 l 6.554,20.6328 c 9.961,-14.9687 29.333,-33.2109 67.379,-33.2109 63.789,0 150.047,53.4219 188.7,170.4179 18.972,57.469 17.578,105.645 -3.942,135.41"
         style="fill:#262121;fill-opacity:1;fill-rule:nonzero;stroke:none"
         id="path20" /><path
         d="m 624.039,297.324 c 16.539,30 41.152,60.61 85.074,60.61 14.641,0 25.043,-3.211 30.918,-10.407 10.071,-12.328 6.989,-40.203 3.742,-50.203 z m 142.793,-99.722 c -27.453,-25.387 -55.84,-51.637 -105.539,-51.637 -24,0 -41.395,7.082 -51.699,19.703 -16.864,20.652 -12.176,51.656 -8.906,71.656 H 821.09 l 2.062,5.981 c 10.438,33.664 27.907,89.675 0.649,133.656 -18.305,28.934 -50.969,43.437 -97.078,43.437 -97.489,0 -181.645,-64.168 -214.395,-163.339 C 494.598,203.5 497.367,156.602 520.133,125.086 540.367,97.0781 575.59,82.25 621.992,82.25 c 102.36,0 146.903,62.938 170.828,96.754 l 4.422,6.238 -26.48,15.996 -3.93,-3.636"
         style="fill:#262121;fill-opacity:1;fill-rule:nonzero;stroke:none"
         id="path22" /><path
         d="M 493.012,517.324 352.301,97.3242 h 90.133 L 583.145,517.324 h -90.133"
         style="fill:#262121;fill-opacity:1;fill-rule:nonzero;stroke:none"
         id="path24" /><path
         d="m 1380.8,325.359 -50.02,-151.027 c -18.12,-15.773 -38.15,-30.809 -64.99,-30.809 -13.38,0 -23.4,4.481 -29.79,13.317 -12.53,17.355 -11.58,50.683 2.76,94.047 4.96,14.867 20.05,60.133 55.26,87.789 15.06,11.64 32.41,18.32 47.6,18.32 21.71,0 33.52,-9.492 39.18,-31.637 z m 64.55,191.965 -44.66,-133.215 c -10.12,16.321 -27.96,34.825 -67.65,34.825 -89.81,0 -159.96,-87.93 -187.13,-169.973 -23.98,-72.469 -10.96,-112.492 4.19,-133.465 15.58,-21.5546 40.37,-32.8593 71.69,-32.8593 38.57,0 67.79,16.9649 88.77,31.6683 l -6.11,-16.9808 h 90.13 l 140.84,419.9998 h -90.07"
         style="fill:#262121;fill-opacity:1;fill-rule:nonzero;stroke:none"
         id="path26" /><path
         d="m 2557.26,288.461 v -0.004 z m 97.4,69.473 c 14.69,0 25.12,-3.227 31.01,-10.457 10.1,-12.391 6.99,-40.153 3.72,-50.153 h -119.75 c 16.52,30 41.11,60.61 85.02,60.61 z m 114.7,18.671 c -18.21,28.95 -50.84,43.625 -96.97,43.625 -97.52,0 -181.7,-64.082 -214.46,-163.253 -17.73,-53.582 -14.96,-100.442 7.79,-131.942 20.23,-28.0037 55.46,-42.8045 101.88,-42.8045 102.1,0 146.79,62.7965 170.94,96.7495 l 4.47,6.27 -26.66,15.969 -3.91,-3.617 c -27.45,-25.387 -55.84,-51.637 -105.48,-51.637 -24.03,0 -41.44,7.086 -51.75,19.719 -16.87,20.656 -12.18,51.64 -8.92,71.64 h 220.25 l 1.81,5.031 c 10.68,33.872 28.57,89.887 1.01,134.25"
         style="fill:#262121;fill-opacity:1;fill-rule:nonzero;stroke:none"
         id="path28" /><path
         d="m 2909.43,143.523 c -13.4,0 -23.42,4.481 -29.81,13.317 -12.53,17.34 -11.56,50.672 2.81,94.125 4.95,14.863 20.02,60.098 55.22,87.699 15.13,11.649 32.49,18.332 47.62,18.332 21.76,0 33.56,-9.484 39.17,-31.629 l -50.02,-151.039 c -14.56,-12.738 -36.1,-30.805 -64.99,-30.805 z m 179.63,373.801 -44.73,-133.258 c -10.12,16.305 -27.95,34.868 -67.65,34.868 -89.85,0 -159.96,-87.934 -187.07,-169.969 -24.03,-72.481 -11.02,-112.5 4.12,-133.469 15.56,-21.5546 40.36,-32.8593 71.7,-32.8593 38.58,0 67.79,16.9649 88.78,31.6683 l -6.12,-16.9808 h 90.07 l 140.97,419.9998 h -90.07"
         style="fill:#262121;fill-opacity:1;fill-rule:nonzero;stroke:none"
         id="path30" /><path
         d="m 2458.05,387.707 c -11.13,17.641 -33.89,27.762 -62.42,27.762 -13.47,0 -40.77,-2.68 -72.26,-20.602 -14.18,-8.015 -23.88,-15.66 -32.98,-23.808 -1.79,9.617 -6.17,20.312 -17.61,29.605 -12.57,9.863 -29.74,14.867 -51.02,14.867 -41.12,0 -71.2,-16.148 -91.34,-31.191 l 7.59,22.984 h -90.17 L 1944.55,97.3242 h 90.13 l 73,219.3088 0.41,-0.258 c 5.93,6.934 11.06,12.555 21.55,20.289 15.23,11.445 29.25,17.066 41.67,17.066 9.5,0 17.29,-3.777 20.89,-10.011 4.33,-7.321 3.86,-17.86 -1.39,-34.086 L 2120.1,97.3242 h 90.06 l 73.08,219.3318 c 5.53,6.516 11.39,12.25 20.59,19.34 14.14,11.449 30.82,17.918 44.6,17.918 9.41,0 17.24,-3.715 20.5,-9.523 5.22,-8.871 2.24,-19.789 -1.75,-31.77 L 2295.53,97.3242 h 90.13 l 70.12,210.7388 c 7.66,23.191 18.17,53.476 2.27,79.644"
         style="fill:#262121;fill-opacity:1;fill-rule:nonzero;stroke:none"
         id="path32" /><path
         d="m 1459.33,257.324 -13.36,-50 h 109.39 l 13.19,50 h -109.22"
         style="fill:#262121;fill-opacity:1;fill-rule:nonzero;stroke:none"
         id="path34" /><path
         d="m 1768.32,234.473 -22.31,-67.493 c -15.49,-8.554 -36.14,-19.32 -60.18,-19.32 -12.61,0 -21.41,3.332 -26.14,9.891 -5.37,7.445 -5.79,19.73 -1.13,33.73 12.4,37.657 47.6,51.02 73.97,51.02 14.83,0 25.71,-3.473 35.79,-7.828 z m 102.14,44.734 c 8.6,25.981 22.99,69.473 2.72,102.617 -8.54,14.133 -31.75,37.84 -91.2,37.84 -88.84,0 -129.93,-53.715 -152,-82.57 l -4.74,-6.196 27.01,-16.996 4.5,4.274 c 16.45,15.644 43.98,41.828 88.31,41.828 13.12,0 43.94,-3.18 46.75,-32.578 1.02,-11.199 -1.64,-23.852 -4.84,-35.598 -17.32,5.957 -33.57,10.762 -58.83,10.762 -75.56,0 -141.19,-45.008 -163.31,-111.988 -10.03,-30.274 -7.84,-57.618 6.16,-76.989 13.17,-18.2341 35.39,-27.8747 64.26,-27.8747 41.29,0 73.49,17.9997 93.89,31.8047 L 1722,97.3242 h 87.3 l 61.16,183.2848 v -1.402"
         style="fill:#262121;fill-opacity:1;fill-rule:nonzero;stroke:none"
         id="path36" /><path
         d="m 1986.12,257.324 h -109.25 l -13.37,-50 h 109.25 l 13.37,50"
         style="fill:#262121;fill-opacity:1;fill-rule:nonzero;stroke:none"
         id="path38" /><path
         d="m 3193.78,317.914 c -0.18,106.109 85.62,192.098 191.73,191.973 106.04,-0.063 192.16,-86.176 192.35,-192.285 0,-106.11 -85.68,-192.098 -191.73,-191.973 -106.11,0 -192.16,86.113 -192.35,192.285"
         style="fill:#ffffff;fill-opacity:1;fill-rule:nonzero;stroke:none"
         id="path40" /><path
         d="m 3196.26,317.922 c 0.19,-104.668 85.36,-189.82 189.87,-189.82 0.08,0 0.15,0 0.23,0 50.41,0 97.78,19.605 133.44,55.211 35.84,35.804 55.58,83.492 55.58,134.289 -0.18,104.597 -85.36,189.75 -189.88,189.808 -0.07,0 -0.15,0 -0.23,0 -50.53,0 -97.98,-19.648 -133.67,-55.351 -35.78,-35.801 -55.43,-83.438 -55.34,-134.137 z m 190.1,-194.766 c -0.08,0 -0.15,0 -0.23,0 -107.23,0 -194.63,87.367 -194.82,194.754 v 0 c -0.1,52.028 20.07,100.91 56.79,137.649 36.62,36.636 85.33,56.804 137.17,56.804 0.08,0 0.16,0 0.24,0 107.23,-0.062 194.63,-87.433 194.82,-194.758 0,-52.121 -20.25,-101.058 -57.04,-137.796 -36.58,-36.539 -85.2,-56.653 -136.93,-56.653"
         style="fill:#262121;fill-opacity:1;fill-rule:nonzero;stroke:none"
         id="path42" /><path
         d="m 3245.62,317.852 c -0.13,77.464 62.55,140.203 139.95,140.14 77.34,-0.062 140.2,-62.926 140.33,-140.39 0.12,-77.403 -62.49,-140.141 -139.83,-140.079 -77.47,0 -140.27,62.864 -140.45,140.329"
         style="fill:#cf1843;fill-opacity:1;fill-rule:nonzero;stroke:none"
         id="path44" /><path
         d="m 3385.62,457.957 c -11.37,0.008 -22.47,-1.363 -33.05,-3.914 l 0.14,-98.297 -101.77,0.145 c -3.4,-12.114 -5.37,-24.774 -5.37,-37.985 0.03,-12.472 1.71,-24.586 4.79,-36.097 l 102.5,-0.149 0.14,-100.18 c 10.6,-2.562 21.67,-3.914 33.06,-3.914 11.71,-0.007 23.06,1.356 33.92,4.059 l -0.14,99.891 101.34,-0.145 c 3.06,11.543 4.78,23.734 4.78,36.246 -0.02,13.16 -1.96,25.903 -5.36,37.985 l -100.91,0.144 -0.14,98.008 c -10.9,2.726 -22.2,4.191 -33.93,4.203"
         style="fill:#ffffff;fill-opacity:1;fill-rule:nonzero;stroke:none"
         id="path46" /><path
         d="m 3375.54,401.336 c -3.07,1.129 -4.89,3.32 -8.59,3.008 -1.06,-0.188 -1.88,0 -2.88,-1.317 -0.75,2.004 -0.5,3.7 0.82,5.391 1.12,1.566 2.31,2.191 4.26,2.383 h 12.72 c 2.26,4.887 8.65,4.137 10.03,2.883 4.32,1.312 8.08,1.691 11.78,0.875 2.51,-0.563 6.52,-2.321 7.08,-3.633 0,0 -3.07,-2.946 -6.51,-4.391 6.64,-6.765 10.34,-14.101 10.27,-25.258 -0.12,-17.734 -10.46,-26.824 -21.62,-37.289 -9.46,-8.965 -21.31,-14.289 -20.49,-26.449 0.62,-10.215 12.72,-12.91 20.18,-16.672 9.78,-4.887 17.55,-12.285 16.8,-25.32 -0.88,-11.219 -8.78,-18.301 -18.93,-22.125 -6.96,-2.695 -15.86,-4.324 -15.67,-11.219 0.19,-5.074 6.64,-4.949 12.16,-5.703 7.71,-1.066 14.48,-3.949 15.54,-11.031 0.63,-3.946 -2.32,-8.274 -5.01,-9.149 0.87,10.715 -9.84,11.094 -13.79,11.532 -5.14,0.566 -19.18,0.5 -20.5,13.726 -1.06,11.031 8.28,17.676 17.74,21.059 9.78,3.574 16.55,6.457 15.86,14.851 -0.5,6.52 -4.89,9.778 -10.85,12.66 -11.34,5.454 -30.96,12.161 -30.08,29.02 0.75,14.73 13.16,21.621 25.26,31.902 10.47,8.899 19.24,17.172 17.8,30.399 -0.94,7.394 -8.9,12.031 -16.67,10.09 -4.27,-1.129 -8.34,-1.946 -12.66,-3.512 -2.26,-0.125 -2.51,3.195 -0.88,4.199 0,-0.187 14.04,6.895 14.04,6.895 -3.57,0.25 -5.77,1.695 -7.21,2.195"
         style="fill:#262121;fill-opacity:1;fill-rule:nonzero;stroke:none"
         id="path48" /><path
         d="m 3376.1,399.078 c -2.5,-2.758 -6.2,-4.512 -10.65,-4.699 -3.7,-0.188 -8.65,1.129 -8.65,5.828 0,2.695 1.51,5.766 3.01,6.266 0.38,-2.883 1.75,-5.012 4.83,-6.391 4.01,-1.691 6.76,-1.254 11.46,-1.004"
         style="fill:#262121;fill-opacity:1;fill-rule:nonzero;stroke:none"
         id="path50" /><path
         d="m 3383.97,196.883 -0.43,241.73 4.95,0.012 0.43,-241.734 -4.95,-0.008"
         style="fill:#262121;fill-opacity:1;fill-rule:nonzero;stroke:none"
         id="path52" /><path
         d="m 3386.2,405.973 c 0,2.132 1.63,3.824 3.76,3.824 2.13,0 3.82,-1.692 3.82,-3.824 0.06,-2.067 -1.63,-3.758 -3.76,-3.758 -2.13,0 -3.82,1.691 -3.82,3.758"
         style="fill:#ffffff;fill-opacity:1;fill-rule:nonzero;stroke:none"
         id="path54" /><path
         d="m 3219.42,373.883 2.25,6.082 c 0.88,2.316 2.26,4.195 5.02,3.195 2.38,-0.941 2.76,-3.008 1.82,-5.328 l -2.51,-6.519 z m 21.18,-15.606 5.45,14.289 c 2.07,5.329 1.51,11.407 -4.32,13.602 -3.57,1.316 -6.83,0.629 -9.21,-2.57 -0.25,3.007 -1.63,5.203 -4.45,6.269 -5.33,2.067 -8.53,-1.066 -10.66,-6.644 l -5.32,-13.852 z m -10.21,11.407 2.63,7.019 c 1.06,2.758 3.01,4.262 5.89,3.137 2.95,-1.192 2.95,-3.699 1.94,-6.27 l -2.63,-6.957 -7.83,3.071"
         style="fill:#262121;fill-opacity:1;fill-rule:nonzero;stroke:none"
         id="path56" /><path
         d="m 3256.33,394.066 12.79,18.239 -4.64,3.195 -8.84,-12.598 -20.43,14.418 -3.95,-5.703 25.07,-17.551"
         style="fill:#262121;fill-opacity:1;fill-rule:nonzero;stroke:none"
         id="path58" /><path
         d="m 3276.01,420.074 17.49,16.235 -3.83,4.136 -12.41,-11.593 -5.13,5.515 11.15,10.465 -3.57,3.824 -11.16,-10.402 -4.51,4.762 12.22,11.339 -3.95,4.141 -17.17,-16.109 20.87,-22.313"
         style="fill:#262121;fill-opacity:1;fill-rule:nonzero;stroke:none"
         id="path60" /><path
         d="m 3305.34,444.582 5.83,2.82 -8.96,18.426 v 0.063 l 20.81,-12.661 6.2,3.008 -13.47,27.516 -5.83,-2.82 9.09,-18.43 -0.13,-0.059 -20.81,12.66 -6.2,-2.945 13.47,-27.578"
         style="fill:#262121;fill-opacity:1;fill-rule:nonzero;stroke:none"
         id="path62" /><path
         d="m 3349.09,488.141 4.83,0.75 c 6.83,1.066 9.59,-2.446 10.59,-8.586 1.13,-6.707 -2.26,-9.653 -6.33,-10.278 l -6.08,-1.004 z m -2.88,-25.762 13.54,2.133 c 9.4,1.441 13.03,8.773 11.59,17.484 -1.57,9.969 -8.4,14.039 -16.48,12.723 l -13.41,-2.129 4.76,-30.211"
         style="fill:#262121;fill-opacity:1;fill-rule:nonzero;stroke:none"
         id="path64" /><path
         d="m 3383.94,478.988 13.28,-0.5 0.13,5.266 -13.29,0.504 -0.12,-5.27"
         style="fill:#262121;fill-opacity:1;fill-rule:nonzero;stroke:none"
         id="path66" /><path
         d="m 3422.48,486.008 h 0.13 l 1.5,-11.844 -8.02,1.691 z m -19.8,-19.367 6.89,-1.379 3.76,6.144 11.66,-2.445 0.94,-7.145 7.02,-1.503 -5.26,32.402 -6.96,1.504 -18.05,-27.578"
         style="fill:#262121;fill-opacity:1;fill-rule:nonzero;stroke:none"
         id="path68" /><path
         d="m 3443.1,468.461 12.16,-5.391 2.07,4.766 -12.16,5.387 -2.07,-4.762"
         style="fill:#262121;fill-opacity:1;fill-rule:nonzero;stroke:none"
         id="path70" /><path
         d="m 3459.15,448.906 5.26,-3.82 12.6,17.359 0.06,-0.062 -6.33,-21.875 4.33,-3.137 18.99,12.977 0.06,-0.063 -12.72,-17.551 5.2,-3.82 17.99,24.754 -7.97,5.703 -17.92,-12.91 -0.06,0.062 6.33,21.372 -7.9,5.769 -17.92,-24.758"
         style="fill:#262121;fill-opacity:1;fill-rule:nonzero;stroke:none"
         id="path72" /><path
         d="m 3497.94,417.008 14.48,-19.121 4.51,3.453 -10.28,13.598 5.96,4.449 9.21,-12.157 4.2,3.133 -9.21,12.282 5.26,3.824 10.03,-13.289 4.45,3.386 -14.17,18.868 -24.44,-18.426"
         style="fill:#262121;fill-opacity:1;fill-rule:nonzero;stroke:none"
         id="path74" /><path
         d="m 3546.14,387.297 1.88,-4.574 c 2.57,-6.395 0,-9.907 -6.02,-12.16 -6.33,-2.508 -9.84,0.125 -11.47,3.824 l -2.31,5.765 z m -25.7,-2.883 5.08,-12.66 c 3.7,-8.902 11.53,-10.781 19.74,-7.461 9.34,3.887 11.66,11.406 8.65,18.93 l -5.14,12.597 -28.33,-11.406"
         style="fill:#262121;fill-opacity:1;fill-rule:nonzero;stroke:none"
         id="path76" /><path
         d="m 3212.02,264.77 2.38,-6.52 11.91,4.324 4.51,-12.347 4.89,1.691 -4.57,12.41 6.7,2.445 5.21,-14.351 5.32,1.941 -7.65,20.813 -28.7,-10.406"
         style="fill:#262121;fill-opacity:1;fill-rule:nonzero;stroke:none"
         id="path78" /><path
         d="m 3247.62,224.719 c 4.2,3.195 9.78,4.324 13.73,-0.879 3.88,-5.141 1.25,-10.152 -3.01,-13.41 -4.07,-3.075 -9.59,-4.137 -13.54,1 -3.95,5.14 -1.19,10.281 2.82,13.289 z m -4.32,5.765 c -7.02,-5.328 -9.09,-14.351 -2.95,-22.437 6.08,-8.086 15.29,-8.586 22.25,-3.32 7.27,5.449 9.34,14.476 3.26,22.625 -6.08,8.082 -15.36,8.586 -22.56,3.132"
         style="fill:#262121;fill-opacity:1;fill-rule:nonzero;stroke:none"
         id="path80" /><path
         d="m 3292.25,192.191 6.26,-4.261 c 2.51,-1.821 3.14,-3.887 1.44,-6.332 -1.75,-2.508 -3.88,-2.571 -6.45,-0.817 l -6.21,4.391 z m -20.19,-16.796 5.71,-3.95 6.83,9.778 5.7,-3.95 c 2.82,-2.003 3.07,-3.949 1.63,-6.769 -1.13,-2.191 -2.82,-4.637 -3.32,-6.645 l 5.77,-3.949 c -0.07,2.133 2,5.078 3.01,6.645 1.5,2.633 2.63,5.957 0.31,8.523 l 0.06,0.125 c 3.64,-0.937 6.46,0.442 8.46,3.387 2.7,3.887 1.95,8.961 -2.69,12.223 l -13.98,9.714 -17.49,-25.132"
         style="fill:#262121;fill-opacity:1;fill-rule:nonzero;stroke:none"
         id="path82" /><path
         d="m 3321.33,157.156 c -2.26,-7.211 3.26,-12.41 10.15,-14.543 8.52,-2.566 14.29,0.063 15.92,5.391 2.01,6.707 -4.64,10.152 -6.71,11.469 -7.33,4.199 -8.71,5.015 -8.02,7.336 0.82,2.316 3.64,2.504 5.77,1.754 3.32,-1.004 5.76,-2.758 4.82,-6.333 l 6.65,-2.003 c 2.07,6.707 -3.07,11.218 -9.66,13.285 -5.64,1.691 -12.59,0.691 -14.35,-5.266 -1.69,-5.512 2.51,-8.648 6.71,-11.219 4.32,-2.566 8.9,-4.511 7.9,-7.707 -0.94,-2.945 -4.83,-2.507 -7.15,-1.754 -3.76,1.192 -6.52,3.696 -5.39,7.52 l -6.64,2.07"
         style="fill:#262121;fill-opacity:1;fill-rule:nonzero;stroke:none"
         id="path84" /><path
         d="m 3400.36,155.023 c -0.75,7.082 -6.64,11.157 -13.91,11.282 -10.16,0.187 -16.24,-6.707 -16.36,-15.856 -0.19,-8.84 5.7,-16.047 15.85,-16.234 8.03,-0.125 13.73,4.64 14.54,12.285 l -6.95,0.125 c -0.69,-4.012 -3.14,-6.832 -7.46,-6.707 -6.52,0.125 -8.9,5.266 -8.84,10.406 0.07,5.324 2.64,10.403 9.09,10.34 3.57,-0.125 6.64,-2.445 7.08,-5.516 l 6.96,-0.125"
         style="fill:#262121;fill-opacity:1;fill-rule:nonzero;stroke:none"
         id="path86" /><path
         d="m 3427.68,139.418 6.65,2.008 -3.89,12.66 12.22,3.695 3.83,-12.66 6.64,2.067 -9.02,29.273 -6.59,-2.07 3.45,-11.219 -12.22,-3.695 -3.45,11.214 -6.64,-2.003 9.02,-29.27"
         style="fill:#262121;fill-opacity:1;fill-rule:nonzero;stroke:none"
         id="path88" /><path
         d="m 3482.71,199.711 -5.7,-3.887 10.66,-15.793 c 2.57,-3.824 2.44,-6.519 -1.63,-9.215 -4.64,-3.07 -7.27,-0.875 -9.15,1.946 l -10.66,15.793 -5.7,-3.95 10.65,-15.792 c 4.64,-6.833 11.03,-7.395 17.99,-2.696 6.96,4.699 8.96,10.906 4.26,17.738 l -10.72,15.856"
         style="fill:#262121;fill-opacity:1;fill-rule:nonzero;stroke:none"
         id="path90" /><path
         d="m 3520.25,193.508 4.02,5.14 -16.17,12.594 0.06,0.063 24.19,-2.317 4.26,5.453 -24.13,18.864 -4.01,-5.075 16.23,-12.664 -0.06,-0.058 -24.25,2.316 -4.27,-5.453 24.13,-18.863"
         style="fill:#262121;fill-opacity:1;fill-rule:nonzero;stroke:none"
         id="path92" /><path
         d="m 3559.37,260.379 1.75,4.262 -15.36,6.207 -5.13,-12.66 4.63,-1.883 2.7,6.644 c 3.82,-1.941 5.01,-5.39 3.26,-9.652 -2.45,-6.078 -8.09,-6.391 -12.85,-4.387 -4.95,2.008 -8.84,6.203 -6.39,12.16 1.25,3.196 3.88,5.012 7.27,4.45 l 2.57,6.39 c -6.65,1.945 -12.67,-2.504 -15.11,-8.773 -3.82,-9.336 0.56,-17.485 8.96,-20.996 8.21,-3.321 16.99,-0.438 20.81,9.027 1.19,2.945 1.32,6.453 -0.62,9.902 l 3.44,-0.691"
         style="fill:#262121;fill-opacity:1;fill-rule:nonzero;stroke:none"
         id="path94" /><path
         d="m 3541.95,303.949 h 12.95 v 11.098 l 0.14,-0.004 10.51,-0.059 v 13.641 h -10.33 v 10.023 h -13.33 l 0.06,-10.339 h -11.41 l 0.07,-13.266 h 11.34 z m 13.23,-0.269 h -13.5 v 11.09 h -11.35 v 0.136 l -0.06,13.676 h 11.41 l -0.07,10.34 h 13.88 v -10.027 h 10.34 v -14.188 l -0.14,0.004 -10.51,0.059 v -11.09"
         style="fill:#262121;fill-opacity:1;fill-rule:nonzero;stroke:none"
         id="path96" /><path
         d="m 3241.92,355.207 65.12,-0.062 0.18,-72.016 h -65.18 l -0.12,72.078"
         style="fill:#ffffff;fill-opacity:1;fill-rule:nonzero;stroke:none"
         id="path98" /><path
         d="m 3217.48,304.203 h 12.89 v 11.094 h 10.72 l -0.06,13.641 h -10.34 v 10.027 h -13.27 v -10.34 h -11.4 l 0.05,-13.328 h 11.35 v -0.137 z m 13.16,-0.273 h -13.43 v 0.136 l -0.06,10.957 h -11.35 v 0.137 l -0.06,13.735 h 11.41 v 10.339 h 13.81 v -10.027 h 10.34 v -0.137 l 0.06,-14.047 h -10.72 V 303.93"
         style="fill:#262121;fill-opacity:1;fill-rule:nonzero;stroke:none"
         id="path100" /><path
         d="m 3354.04,458.184 64.56,-0.063 v -9.969 l -64.5,0.125 -0.06,9.907"
         style="fill:#ffffff;fill-opacity:1;fill-rule:nonzero;stroke:none"
         id="path102" /></g></g></svg>
