<?xml version="1.0" encoding="UTF-8" standalone="no"?>
<svg
   xmlns:dc="http://purl.org/dc/elements/1.1/"
   xmlns:cc="http://creativecommons.org/ns#"
   xmlns:rdf="http://www.w3.org/1999/02/22-rdf-syntax-ns#"
   xmlns:svg="http://www.w3.org/2000/svg"
   xmlns="http://www.w3.org/2000/svg"
   xmlns:sodipodi="http://sodipodi.sourceforge.net/DTD/sodipodi-0.dtd"
   xmlns:inkscape="http://www.inkscape.org/namespaces/inkscape"
   version="1.1"
   id="svg2"
   xml:space="preserve"
   width="265.85333"
   height="72.506668"
   viewBox="0 0 265.85333 72.506668"
   sodipodi:docname="nivea-seeklogo.com.eps"><metadata
     id="metadata8"><rdf:RDF><cc:Work
         rdf:about=""><dc:format>image/svg+xml</dc:format><dc:type
           rdf:resource="http://purl.org/dc/dcmitype/StillImage" /></cc:Work></rdf:RDF></metadata><defs
     id="defs6" /><sodipodi:namedview
     pagecolor="#ffffff"
     bordercolor="#666666"
     borderopacity="1"
     objecttolerance="10"
     gridtolerance="10"
     guidetolerance="10"
     inkscape:pageopacity="0"
     inkscape:pageshadow="2"
     inkscape:window-width="640"
     inkscape:window-height="480"
     id="namedview4" /><g
     id="g10"
     inkscape:groupmode="layer"
     inkscape:label="ink_ext_XXXXXX"
     transform="matrix(1.3333333,0,0,-1.3333333,0,72.506667)"><g
       id="g12"
       transform="scale(0.1)"><path
         d="M 1993.91,0 H 0 V 543.789 H 1993.91 V 0"
         style="fill:#2b398e;fill-opacity:1;fill-rule:evenodd;stroke:none"
         id="path14" /><path
         d="M 951.082,297.07 876.953,439.082 H 774.332 L 951.082,102.199 1127.3,439.082 H 1025.18 L 951.082,297.07 v 0"
         style="fill:#ffffff;fill-opacity:1;fill-rule:evenodd;stroke:none"
         id="path16" /><path
         d="m 1589.7,447.383 -190.74,-337.41 h 110.92 l 17.1,35.254 h 125.42 l 17.64,-35.254 h 110.91 z m -41.63,-240.488 31.63,61.164 31.62,-61.164 z"
         style="fill:#ffffff;fill-opacity:1;fill-rule:evenodd;stroke:none"
         id="path18" /><path
         d="M 734.121,109.973 V 439.082 H 638.242 V 109.973 h 95.879 v 0"
         style="fill:#ffffff;fill-opacity:1;fill-rule:evenodd;stroke:none"
         id="path20" /><path
         d="m 1360.16,350.977 v 88.105 H 1157.5 V 109.973 h 202.66 v 87.605 h -106.25 v 43.008 h 106.25 v 68.937 h -106.25 v 41.454 h 106.25 v 0"
         style="fill:#ffffff;fill-opacity:1;fill-rule:evenodd;stroke:none"
         id="path22" /><path
         d="M 531.223,439.082 H 435.348 V 311.074 L 271.039,460.332 V 109.973 H 366.93 V 232.285 L 531.223,85.6172 v 353.4648 0"
         style="fill:#ffffff;fill-opacity:1;fill-rule:evenodd;stroke:none"
         id="path24" /></g></g></svg>
