<?xml version="1.0" encoding="UTF-8" standalone="no"?>
<svg
   xmlns:dc="http://purl.org/dc/elements/1.1/"
   xmlns:cc="http://creativecommons.org/ns#"
   xmlns:rdf="http://www.w3.org/1999/02/22-rdf-syntax-ns#"
   xmlns:svg="http://www.w3.org/2000/svg"
   xmlns="http://www.w3.org/2000/svg"
   xmlns:sodipodi="http://sodipodi.sourceforge.net/DTD/sodipodi-0.dtd"
   xmlns:inkscape="http://www.inkscape.org/namespaces/inkscape"
   version="1.1"
   width="841.88977"
   height="595.27557"
   id="svg4"
   viewBox="0 0 841.88977 595.27557"
   sodipodi:docname="Perwoll_Logo.cdr">
  <metadata
     id="metadata10">
    <rdf:RDF>
      <cc:Work
         rdf:about="">
        <dc:format>image/svg+xml</dc:format>
        <dc:type
           rdf:resource="http://purl.org/dc/dcmitype/StillImage" />
      </cc:Work>
    </rdf:RDF>
  </metadata>
  <defs
     id="defs8" />
  <sodipodi:namedview
     pagecolor="#ffffff"
     bordercolor="#666666"
     borderopacity="1"
     objecttolerance="10"
     gridtolerance="10"
     guidetolerance="10"
     inkscape:pageopacity="0"
     inkscape:pageshadow="2"
     inkscape:window-width="640"
     inkscape:window-height="480"
     id="namedview6" />
  <path
     d="m 73.6917,122.2075 c 13.124,-3.3432 26.614,-5.1411 40.1446,-5.5658 3.3341,-1e-4 6.6773,-0.0587 9.9933,0.4247 22.6384,1.3371 45.4259,8.8638 62.7876,23.7859 10.7432,9.3742 18.3601,22.1188 22.0239,35.8663 4.1519,15.5275 4.0299,32.0398 0.6642,47.7029 -3.1805,12.7806 -8.8683,24.9424 -16.675,35.5501 -11.4705,15.6404 -27.2827,27.7164 -44.5494,36.3452 -16.4266,8.3986 -34.2174,13.743 -52.1754,17.7412 -2.4893,34.0638 -3.1038,68.236 -2.5842,102.3766 0.3208,16.2909 0.9035,32.5865 1.8974,48.8549 0.3027,2.9275 -0.2124,6.2254 -2.4666,8.3172 -2.5526,2.4079 -6.2752,2.9364 -9.6499,2.8687 -5.5614,-0.1446 -10.4812,-3.4651 -14.1181,-7.4543 -4.7751,-5.3399 -8.3442,-11.7958 -10.3681,-18.6628 -2.5481,-9.686 -3.56,-19.6838 -4.5087,-29.6273 -1.8071,-21.0844 -2.3899,-42.2589 -2.5028,-63.4111 -0.2034,-39.4625 1.3011,-78.9294 4.2963,-118.2835 2.268,-28.9181 5.3445,-57.791 10.0791,-86.4154 -5.0012,1.9923 -9.3066,5.331 -13.3228,8.8458 -4.4455,3.9845 -8.5295,8.3577 -12.356,12.9298 -1.4096,1.8069 -3.8628,2.4892 -6.0538,1.9742 -2.8553,-0.6643 -5.2723,-2.557 -7.1607,-4.7391 -4.2828,-4.9831 -6.2209,-12.0263 -4.6758,-18.4595 0.7274,-2.7515 2.5615,-5.0237 4.4409,-7.0884 4.0931,-4.3055 8.918,-7.8744 14.0005,-10.9284 10.2191,-5.9184 21.3283,-10.305 32.8395,-12.9478 z m 27.5221,21.9201 c 0.0768,11.2671 0.3704,22.539 0.122,33.8063 -0.1491,19.2815 -0.8448,38.5589 -1.8614,57.8181 -0.8809,17.5694 -2.3266,35.1028 -3.5012,52.6497 16.3768,-3.4109 31.457,-11.5699 44.4184,-21.9923 9.894,-8.0553 18.6854,-17.5966 25.2271,-28.5792 7.861,-14.7415 11.4344,-32.1483 7.9423,-48.6471 -2.5481,-13.6888 -9.9211,-26.4785 -20.705,-35.3197 -10.3817,-7.7571 -23.5193,-11.0684 -36.3317,-11.3079 -5.1365,-0.0543 -10.3229,0.2891 -15.3105,1.5721 z m 603.2004,9.1258 c 2.3989,-0.8675 4.8742,0.1356 7.228,0.6777 7.4588,2.0239 14.9266,4.7889 21.0211,9.677 4.2243,3.3611 7.549,8.0552 8.6108,13.4087 0.669,2.9862 0.542,6.0583 0.262,9.0853 -3.0038,48.1273 -5.087,96.3363 -5.0463,144.5587 0.262,22.304 0.6415,44.6759 3.4379,66.84 1.3826,11.4117 3.0993,22.7829 5.2406,34.0773 1.9386,9.8847 4.0842,19.7742 7.4363,29.293 1.3691,3.6594 2.8416,7.3459 5.1276,10.549 0.8315,1.2062 2.2769,2.191 2.2814,3.8038 -0.0944,1.6446 -1.789,2.4668 -3.194,2.7876 -2.272,0.4427 -4.6035,0.3569 -6.8985,0.5331 -7.3864,0.3975 -15.139,-0.4157 -21.631,-4.2286 -7.1064,-4.1157 -12.0896,-11.0414 -15.5411,-18.3467 -5.0368,-10.6979 -7.4994,-22.3809 -9.2207,-34.0095 -2.8279,-21.4412 -4.1473,-43.045 -5.0688,-64.6443 -0.9757,-24.2062 -1.3011,-48.4303 -1.116,-72.659 0.2261,-23.9711 1.116,-47.9287 1.5451,-71.8999 0.5559,-18.0846 0.5151,-36.1916 1.5722,-54.2625 0.3163,-2.2544 1.7167,-4.4953 3.953,-5.2406 z m 60.0904,-0.0181 c 2.2179,-0.7636 4.5219,0.0272 6.6905,0.5694 7.423,1.9786 14.8453,4.6758 20.9894,9.4104 4.4636,3.4108 8.0145,8.2359 9.1213,13.8153 0.9533,4.1832 0.2034,8.4707 0.0272,12.6948 -2.9726,48.5838 -5.0238,97.2444 -4.7527,145.9186 0.2665,21.8479 0.8945,43.7589 3.822,65.4395 1.5224,11.841 3.3702,23.6459 5.76,35.3423 1.681,8.019 3.5421,16.0244 6.2437,23.7724 1.6536,4.6126 3.5103,9.3066 6.8172,13.0156 1.0395,1.03 1.1024,2.932 -0.1626,3.8129 -2.0959,1.5226 -4.834,1.1973 -7.2691,1.4277 -7.7525,0.5376 -15.943,0.0542 -22.8732,-3.7949 -7.0022,-3.8039 -12.0128,-10.3818 -15.5456,-17.3843 -4.5855,-9.2614 -7.1064,-19.3766 -8.909,-29.5053 -1.834,-10.8517 -2.8146,-21.8299 -3.7589,-32.7899 -2.9319,-37.0274 -3.5102,-74.1858 -3.3159,-111.3127 0.2442,-24.4003 1.1475,-48.7916 1.5856,-73.1919 0.4837,-17.023 0.5376,-34.0547 1.4187,-51.0686 0.0994,-2.5705 1.5496,-5.3354 4.1111,-6.1711 z M 335.12,283.6039 c 5.0464,-4.7753 12.1707,-6.9031 19.0331,-6.4649 6.795,0.4292 13.7024,2.6339 18.9791,7.0432 1.4006,1.1113 2.9321,3.7 0.9397,4.9921 -13.5441,6.2434 -24.3913,17.7005 -30.698,31.1408 -8.0414,15.803 -13.5714,32.7807 -17.4476,50.0521 -5.2132,23.569 -7.4497,47.7616 -7.2149,71.8863 -0.0586,6.6321 0.768,13.2415 0.6822,19.8735 -0.0541,3.6278 -0.6279,7.5041 -3.0177,10.3864 -3.7046,4.6713 -10.2554,6.1712 -15.9206,5.1095 -5.4572,-1.0482 -9.921,-4.9063 -12.9705,-9.3969 -4.6351,-6.745 -6.3699,-14.9131 -7.8292,-22.8236 -2.8371,-16.5486 -3.8762,-33.3545 -4.4454,-50.1154 -1.9426,4.694 -3.5239,9.5506 -5.724,14.1496 -7.3413,16.0922 -17.3934,30.9194 -29.3879,43.908 -5.1051,5.4755 -10.6167,10.6844 -17.059,14.5561 -8.9044,5.48 -19.223,8.5476 -29.6455,9.0762 -7.6937,0.3163 -15.55,-0.3343 -22.8416,-2.9411 -7.2962,-2.6339 -13.4179,-7.897 -17.8317,-14.1993 -5.7781,-8.2041 -9.0986,-17.854 -11.3305,-27.5626 -3.7993,-17.5155 -5.1953,-35.5728 -4.1427,-53.4631 0.6595,-10.7658 2.5435,-21.4321 5.0824,-31.8997 2.4215,-9.6184 5.5524,-19.0965 9.9165,-28.0191 4.2106,-8.7735 9.939,-16.8919 17.19,-23.4155 11.3125,-10.314 26.6095,-16.3136 41.9608,-15.8707 8.9226,0.027 18.2381,2.0419 25.3988,7.6349 6.3474,4.8702 10.3637,12.2792 12.0578,20.0137 2.0646,8.7326 1.274,17.8404 -0.6957,26.5101 -3.4786,16.449 -11.7417,31.9269 -23.9124,43.5781 -11.213,10.856 -25.2362,18.6085 -40.1266,23.1354 -2.164,0.6234 -4.3326,1.2378 -6.5463,1.6444 0.5015,9.4692 1.6581,19.0965 5.3716,27.9015 2.3584,5.471 6.1306,10.7478 11.7597,13.1693 5.7241,2.5479 12.329,1.6355 17.9987,-0.6009 3.42,-1.2424 6.3474,-3.4695 9.2072,-5.6607 6.2662,-5.0012 11.6919,-11.0188 16.309,-17.5605 4.8838,-7.3278 9.546,-14.8317 13.3636,-22.7784 10.4541,-21.2922 16.0876,-44.6806 18.5814,-68.1863 0.5558,-4.8567 0.7319,-9.7673 1.6807,-14.5698 0.28,-1.1204 0.5013,-2.3402 1.292,-3.2301 5.2632,-4.7211 11.1904,-9.2704 18.324,-10.5625 4.0028,-0.8268 8.5339,0.262 11.1497,3.551 4.0119,5.0417 4.703,11.7822 4.9063,17.9986 -0.1942,10.2462 -0.0452,20.497 -0.0949,30.7433 0.1718,2.5796 -0.0541,5.1999 0.4518,7.7569 1.7665,-8.9587 3.7904,-17.8631 5.733,-26.7811 2.3675,-10.2961 4.7301,-20.6642 8.8005,-30.4496 2.9866,-7.1246 7.1291,-13.874 12.713,-19.2592 z m -136.2326,20.4969 c -5.1999,4.7619 -8.6063,11.0866 -11.4435,17.4567 -3.456,8.4706 -6.2164,17.2306 -8.1907,26.1712 -2.2271,10.4811 -3.5238,21.2877 -2.4937,31.9947 6.9845,-3.56 13.5667,-7.9964 19.1597,-13.5125 11.7146,-11.3396 19.1327,-26.7812 21.5316,-42.8419 0.8042,-5.0373 1.0391,-10.3456 -0.6958,-15.2156 -1.3553,-3.7859 -4.8159,-6.9845 -8.9271,-7.3007 -3.2617,-0.2079 -6.4828,1.161 -8.9405,3.2483 z m 417.5753,-22.3312 c 9.7131,-0.9803 19.6926,0.0543 28.8274,3.5872 7.8385,2.5886 14.7731,7.4497 20.4699,13.359 5.0693,5.1185 9.18,11.1769 12.1302,17.7502 3.6504,8.0776 5.9452,16.7021 7.531,25.3988 1.9114,10.7295 2.801,21.6444 2.4668,32.5367 -0.6683,20.4428 -3.5465,41.0708 -10.9782,60.226 -2.909,7.1697 -6.5734,14.109 -11.5428,20.0814 -5.6923,6.9122 -12.6723,12.8079 -20.6101,16.9777 -7.296,3.7768 -15.446,5.7962 -23.6232,6.3249 -6.0443,0.4427 -12.1527,-0.1943 -17.9941,-1.7846 -7.2823,-1.7665 -14.1542,-5.2316 -19.833,-10.1288 -6.3022,-5.3354 -11.1497,-12.2204 -14.7595,-19.6069 -4.016,-8.2359 -6.8714,-16.9958 -9.0581,-25.8822 -2.7824,-11.1047 -4.2556,-22.5075 -4.7525,-33.9372 -0.8627,-19.2683 0.1491,-38.9023 5.8956,-57.4342 2.6025,-8.2856 6.117,-16.3813 11.2492,-23.4244 10.6169,-13.7882 27.242,-22.7017 44.5811,-24.0434 z m 2.6968,22.9864 c -7.2735,1.2784 -13.4854,6.3701 -16.919,12.8033 -3.0765,5.7962 -5.0463,12.1121 -6.5553,18.473 -2.8052,11.9901 -3.6458,24.3326 -3.8356,36.6118 -0.1395,12.1843 0.6822,24.4139 2.9999,36.3905 1.4459,8.0912 3.9981,15.9972 7.8202,23.2843 2.5709,4.9605 5.9996,9.6229 10.6483,12.8215 2.7879,1.9426 6.3159,2.9591 9.6996,2.3582 4.2153,-0.6369 7.9061,-3.1217 10.8336,-6.1261 3.723,-4.0027 6.6953,-8.6876 8.7056,-13.7701 2.5349,-6.4739 4.17,-13.2685 5.593,-20.0587 2.6704,-13.5307 3.5419,-27.3866 3.0721,-41.1567 0.0725,-10.2824 -0.9171,-20.5828 -2.9953,-30.6528 -1.4318,-6.6322 -3.4064,-13.2054 -6.5959,-19.214 -2.5841,-4.8476 -6.7404,-8.9858 -11.9088,-10.9782 -3.352,-1.3011 -7.0567,-1.3733 -10.5624,-0.786 z M 530.395,285.0224 c 2.7196,-0.6461 5.9001,-0.5375 8.1182,1.3645 2.3222,1.8522 3.1218,4.8881 3.6413,7.6801 1.0528,6.1215 1.0075,12.3561 1.3328,18.5409 0.9307,23.0178 1.1746,46.09 -0.4157,69.0853 -0.7996,10.9374 -1.9878,21.8749 -4.2601,32.6181 -1.6355,8.7508 -4.2241,17.321 -7.6486,25.5387 -3.492,8.2043 -7.8564,16.1375 -13.7791,22.8554 -5.0508,5.7556 -11.4299,10.5172 -18.7668,12.8935 -6.7945,2.155 -14.2444,2.5572 -21.1158,0.5151 -8.6017,-2.4125 -16.029,-8.1906 -21.098,-15.4779 -6.1123,-8.6514 -9.311,-18.9971 -11.1361,-29.3381 -2.8055,7.26 -5.7603,14.5335 -9.9798,21.1159 -4.373,6.989 -9.8757,13.3906 -16.7292,18.0529 -5.8233,3.9575 -12.6316,6.5869 -19.6658,7.2013 -6.2975,0.2078 -12.7896,-0.3299 -18.6582,-2.7829 -4.8158,-2.164 -8.7464,-5.9409 -11.7688,-10.2101 -4.8293,-6.8219 -7.7162,-14.8182 -9.5233,-22.9231 -3.5915,-16.2909 -4.9108,-33.0111 -4.9921,-49.6681 0.0408,-21.0798 1.9472,-42.1776 5.9499,-62.8824 1.5812,-7.4317 3.2889,-15.0802 7.4181,-21.5722 3.0088,-4.8748 8.6785,-7.1516 14.0456,-8.3081 4.021,-0.7229 8.3444,-0.9307 12.2161,0.5782 2.3719,0.9261 4.459,2.9094 4.9649,5.4755 0.4427,2.5344 -0.1581,5.087 -0.4246,7.6079 -2.3943,18.7486 -3.7182,37.6193 -4.2829,56.5034 -0.2437,9.3562 -0.1988,18.7215 0.253,28.0688 0.4925,9.1891 1.2289,18.4052 3.1579,27.4182 0.9669,4.1065 2.0737,8.299 4.4139,11.868 1.1882,1.7936 3.063,3.4517 5.3444,3.3838 2.5572,-0.3026 4.6713,-2.0014 6.2977,-3.8898 3.628,-4.1562 6.2571,-9.0761 8.4844,-14.0952 5.5706,-12.9932 8.3984,-26.9755 10.2734,-40.9308 2.0194,-14.99 2.4441,-30.1198 2.8912,-45.2181 0.2532,-7.5312 0.3931,-15.0667 0.5467,-22.5978 -0.158,-3.1761 0.4518,-6.5824 2.5887,-9.049 1.839,-2.2228 4.6759,-3.2302 7.4091,-3.8401 4.4456,-1.003 9.2072,-1.2153 13.6075,0.1355 4.1518,1.2423 7.8564,4.4184 9.1259,8.6424 1.5902,5.1231 1.2107,10.5581 1.2648,15.8483 -0.0675,14.136 0.3886,28.272 1.1476,42.3855 0.7229,12.5548 1.7348,25.1005 3.5645,37.547 1.1702,7.6439 2.5435,15.3061 5.0328,22.6519 1.4954,3.8807 3.3611,7.8654 6.6455,10.567 2.8961,2.4305 7.3279,2.0962 10.2915,-0.0542 3.2709,-2.3266 5.1367,-6.0809 6.3112,-9.8171 3.0315,-9.3201 4.7843,-19.0107 6.1351,-28.7012 4.0616,-30.7477 2.8689,-61.9563 -0.786,-92.6815 -0.0994,-1.9337 0.9125,-3.6774 1.8251,-5.2993 2.6835,-4.2602 6.2571,-7.9016 10.1604,-11.0503 3.1716,-2.4759 6.6366,-4.7347 10.5717,-5.7558 z"
     style="fill:#231f76;fill-rule:evenodd"
     id="path2" />
</svg>
